# xmcd CD database file
# Copyright (C) 1995-1998 Ti Kan
#
# Track frame offsets:
#	150
#	36769
#	65831
#	88819
#	109715
#	143796
#	169666
#	203867
#	229623
#	265278
#	288736
#
# Disc length: 4150 seconds
#
# Revision: 1
# Processed by: cddbd v1.4PL0 Copyright (c) Steve Scherf et al.
# Submitted via: CDex 1.30Release
#
DISCID=a410340b
DTITLE=Jeff Buckley - Eternal Life (bootleg)
DYEAR=1995
DGENRE=Blues
TTITLE0=Dream Brother
TTITLE1=Mojo Pin
TTITLE2=So Real
TTITLE3=Last Goodbye
TTITLE4=What Will You Say
TTITLE5=Grace
TTITLE6=Should've Come Over
TTITLE7=Eternal Life
TTITLE8=Should've Come Over
TTITLE9=So Real
TTITLE10=Last Goodbye
EXTD=YEAR: 1995 ID3G:   0
EXTT0=
EXTT1=
EXTT2=
EXTT3=
EXTT4=
EXTT5=
EXTT6=
EXTT7=
EXTT8=
EXTT9=
EXTT10=
PLAYORDER=
